<svg preserveAspectRatio="none" width="100%" height="100%" overflow="visible" style="display: block;" viewBox="0 0 16 16" fill="none" xmlns="http://www.w3.org/2000/svg">
<g id="Icon">
<path id="Vector" fill-rule="evenodd" clip-rule="evenodd" d="M3.293 6.792C3.12082 6.61981 3.01739 6.39071 3.00211 6.14768C2.98683 5.90466 3.06075 5.6644 3.21 5.472L3.293 5.378C3.48053 5.19053 3.73484 5.08521 4 5.08521C4.26516 5.08521 4.51947 5.19053 4.707 5.378L8 8.67L11.293 5.378C11.4652 5.20582 11.6943 5.10239 11.9373 5.08711C12.1803 5.07183 12.4206 5.14575 12.613 5.295L12.707 5.378C12.8945 5.56553 12.9998 5.81984 12.9998 6.085C12.9998 6.35016 12.8945 6.60447 12.707 6.792L8.707 10.793C8.51947 10.9805 8.26516 11.0858 8 11.0858C7.73484 11.0858 7.48053 10.9805 7.293 10.793L3.293 6.792Z" fill="var(--fill-0, #575456)"/>
</g>
</svg>
