<svg preserveAspectRatio="none" width="100%" height="100%" overflow="visible" style="display: block;" viewBox="0 0 16 16" fill="none" xmlns="http://www.w3.org/2000/svg">
<g id="Icon" clip-path="url(#clip0_0_9)">
<path id="Vector" fill-rule="evenodd" clip-rule="evenodd" d="M9 7H11.002C11.552 7 11.736 7.36 11.409 7.812L8.59 11.688C8.264 12.137 7.737 12.139 7.41 11.688L4.59 7.813C4.262 7.363 4.451 7 4.995 7H7V1C7 0.734784 7.10536 0.48043 7.29289 0.292893C7.48043 0.105357 7.73478 0 8 0C8.26522 0 8.51957 0.105357 8.70711 0.292893C8.89464 0.48043 9 0.734784 9 1V7ZM1 16C0.734784 16 0.48043 15.8946 0.292893 15.7071C0.105357 15.5196 0 15.2652 0 15C0 14.7348 0.105357 14.4804 0.292893 14.2929C0.48043 14.1054 0.734784 14 1 14H15C15.2652 14 15.5196 14.1054 15.7071 14.2929C15.8946 14.4804 16 14.7348 16 15C16 15.2652 15.8946 15.5196 15.7071 15.7071C15.5196 15.8946 15.2652 16 15 16H1Z" fill="var(--fill-0, #575456)"/>
</g>
<defs>
<clipPath id="clip0_0_9">
<rect width="16" height="16" fill="white"/>
</clipPath>
</defs>
</svg>
