<svg preserveAspectRatio="none" width="100%" height="100%" overflow="visible" style="display: block;" viewBox="0 0 16 16" fill="none" xmlns="http://www.w3.org/2000/svg">
<g id="Icon" clip-path="url(#clip0_0_37)">
<path id="Vector" fill-rule="evenodd" clip-rule="evenodd" d="M14.258 0.128L0.448 8.25C0.301702 8.33644 0.182529 8.46212 0.103977 8.6128C0.0254247 8.76348 -0.00936879 8.93314 0.00353663 9.10258C0.016442 9.27201 0.0765307 9.43445 0.176998 9.57149C0.277466 9.70854 0.414298 9.81471 0.572 9.878L3.295 10.967L10.943 4.497C11.359 4.145 11.922 4.704 11.573 5.123L5.85 11.99L5.029 12.974C4.9132 13.1134 4.84956 13.2888 4.849 13.47V15.318C4.84909 15.4715 4.89468 15.6215 4.98001 15.749C5.06535 15.8766 5.1866 15.976 5.32842 16.0347C5.47025 16.0933 5.62628 16.1086 5.77679 16.0786C5.9273 16.0486 6.06553 15.9746 6.174 15.866L8.85 13.19L12.756 14.752C12.8851 14.8035 13.0242 14.8247 13.1628 14.8141C13.3013 14.8035 13.4356 14.7613 13.5553 14.6907C13.675 14.6201 13.777 14.5231 13.8534 14.407C13.9298 14.2909 13.9786 14.1589 13.996 14.021L15.62 1.025C15.6408 0.856558 15.6142 0.685642 15.543 0.531565C15.4718 0.377488 15.3589 0.246391 15.2172 0.153085C15.0754 0.0597789 14.9103 0.00798342 14.7407 0.00355066C14.571 -0.000882109 14.4035 0.0422245 14.257 0.128" fill="var(--fill-0, #575456)"/>
</g>
<defs>
<clipPath id="clip0_0_37">
<rect width="16" height="16" fill="white"/>
</clipPath>
</defs>
</svg>
