<svg preserveAspectRatio="none" width="100%" height="100%" overflow="visible" style="display: block;" viewBox="0 0 16 16" fill="none" xmlns="http://www.w3.org/2000/svg">
<g id="Icon">
<g id="Vector">
</g>
<path id="Vector_2" fill-rule="evenodd" clip-rule="evenodd" d="M1 8C1 9.85652 1.7375 11.637 3.05025 12.9497C4.36301 14.2625 6.14348 15 8 15C9.85652 15 11.637 14.2625 12.9497 12.9497C14.2625 11.637 15 9.85652 15 8C15 6.14348 14.2625 4.36301 12.9497 3.05025C11.637 1.7375 9.85652 1 8 1C6.14348 1 4.36301 1.7375 3.05025 3.05025C1.7375 4.36301 1 6.14348 1 8ZM9 11C9 11.2652 8.89464 11.5196 8.70711 11.7071C8.51957 11.8946 8.26522 12 8 12C7.73478 12 7.48043 11.8946 7.29289 11.7071C7.10536 11.5196 7 11.2652 7 11C7 10.7348 7.10536 10.4804 7.29289 10.2929C7.48043 10.1054 7.73478 10 8 10C8.26522 10 8.51957 10.1054 8.70711 10.2929C8.89464 10.4804 9 10.7348 9 11ZM7.125 6V5.998C7.15547 5.9649 7.19131 5.93718 7.231 5.916C7.393 5.824 7.67 5.75 8 5.75C8.33 5.75 8.607 5.824 8.769 5.916C8.80869 5.93718 8.84453 5.9649 8.875 5.998C8.85429 6.04684 8.82593 6.09207 8.791 6.132C8.6538 6.29073 8.50542 6.43944 8.347 6.577L8.258 6.66C7.854 7.035 7.125 7.711 7.125 8.75C7.125 8.98206 7.21719 9.20462 7.38128 9.36872C7.54538 9.53281 7.76794 9.625 8 9.625C8.23206 9.625 8.45462 9.53281 8.61872 9.36872C8.78281 9.20462 8.875 8.98206 8.875 8.75C8.875 8.557 8.995 8.365 9.47 7.922L9.54 7.858C9.728 7.685 9.97 7.461 10.162 7.219C10.39 6.931 10.625 6.524 10.625 6C10.625 5.22 10.149 4.689 9.637 4.397C9.143 4.114 8.545 4 8 4C7.455 4 6.857 4.114 6.363 4.397C5.851 4.689 5.375 5.22 5.375 6C5.375 6.23206 5.46719 6.45462 5.63128 6.61872C5.79538 6.78281 6.01794 6.875 6.25 6.875C6.48206 6.875 6.70462 6.78281 6.86872 6.61872C7.03281 6.45462 7.125 6.23206 7.125 6Z" fill="var(--fill-0, #575456)"/>
</g>
</svg>
