<svg preserveAspectRatio="none" width="100%" height="100%" overflow="visible" style="display: block;" viewBox="0 0 16 16" fill="none" xmlns="http://www.w3.org/2000/svg">
<g id="Icon" clip-path="url(#clip0_0_15)">
<path id="Vector" fill-rule="evenodd" clip-rule="evenodd" d="M16 7V11.994C16.0008 12.2566 15.9498 12.5169 15.8501 12.7598C15.7503 13.0028 15.6036 13.2237 15.4185 13.41C15.2333 13.5962 15.0133 13.7442 14.7709 13.8455C14.5286 13.9467 14.2686 13.9992 14.006 14H1.994C1.73109 14.0001 1.47076 13.9483 1.22799 13.8473C0.985221 13.7464 0.764816 13.5985 0.579472 13.412C0.394128 13.2256 0.247507 13.0043 0.148055 12.7609C0.0486029 12.5175 -0.00171493 12.2569 0 11.994V7H16ZM5.055 1C6.111 1 6.976 1.815 7.053 2.85L7.058 3H13.993C15.051 3 15.918 3.815 15.995 4.85L16 5H0V3C-5.25962e-07 2.73702 0.0518633 2.47662 0.152623 2.23371C0.253382 1.9908 0.401059 1.77014 0.5872 1.58437C0.773341 1.3986 0.994292 1.25137 1.2374 1.15109C1.48052 1.05082 1.74102 0.999474 2.004 1H5.055Z" fill="var(--fill-0, #575456)"/>
</g>
<defs>
<clipPath id="clip0_0_15">
<rect width="16" height="16" fill="white"/>
</clipPath>
</defs>
</svg>
