<svg preserveAspectRatio="none" width="100%" height="100%" overflow="visible" style="display: block;" viewBox="0 0 16 16" fill="none" xmlns="http://www.w3.org/2000/svg">
<g id="Icon">
<path id="Vector" fill-rule="evenodd" clip-rule="evenodd" d="M12.406 1.024C13.376 1.024 14.161 1.807 14.161 2.769V13.279C14.1603 13.5088 14.1144 13.7362 14.0259 13.9483C13.9373 14.1604 13.8079 14.3529 13.6449 14.515C13.4819 14.677 13.2886 14.8054 13.0761 14.8927C12.8635 14.98 12.6358 15.0247 12.406 15.024H3.666C2.697 15.024 1.911 14.241 1.911 13.279V2.77C1.91166 2.54019 1.95757 2.31275 2.04612 2.10068C2.13467 1.88861 2.26413 1.69606 2.4271 1.53403C2.59006 1.37199 2.78335 1.24363 2.99592 1.1563C3.20849 1.06896 3.43619 1.02434 3.666 1.025L12.406 1.024ZM11.54 8.024H4.532C4.30121 8.02662 4.08069 8.1198 3.91795 8.28347C3.75522 8.44715 3.6633 8.6682 3.662 8.899C3.662 9.386 4.052 9.774 4.532 9.774H11.54C11.771 9.77164 11.9917 9.67857 12.1547 9.51487C12.3176 9.35117 12.4097 9.12997 12.411 8.899L12.406 8.796C12.3819 8.58333 12.2802 8.38701 12.1205 8.24458C11.9607 8.10215 11.754 8.02362 11.54 8.024ZM11.54 5.399H4.532C4.30121 5.40162 4.08069 5.4948 3.91795 5.65847C3.75522 5.82215 3.6633 6.0432 3.662 6.274C3.662 6.761 4.052 7.149 4.532 7.149H11.54C11.771 7.14664 11.9917 7.05357 12.1547 6.88987C12.3176 6.72617 12.4097 6.50497 12.411 6.274L12.406 6.171C12.3819 5.95833 12.2802 5.76201 12.1205 5.61958C11.9607 5.47716 11.754 5.39862 11.54 5.399ZM11.54 2.774H4.532C4.30121 2.77662 4.08069 2.8698 3.91795 3.03347C3.75522 3.19715 3.6633 3.4182 3.662 3.649C3.662 4.136 4.052 4.524 4.532 4.524H11.54C11.771 4.52164 11.9917 4.42857 12.1547 4.26487C12.3176 4.10117 12.4097 3.87997 12.411 3.649L12.406 3.546C12.3819 3.33333 12.2802 3.13701 12.1205 2.99458C11.9607 2.85216 11.754 2.77362 11.54 2.774Z" fill="#A84C9D"/>
</g>
</svg>
