<svg preserveAspectRatio="none" width="100%" height="100%" overflow="visible" style="display: block;" viewBox="0 0 16 16" fill="none" xmlns="http://www.w3.org/2000/svg">
<g id="Icon" clip-path="url(#clip0_0_7)">
<path id="Vector" fill-rule="evenodd" clip-rule="evenodd" d="M8 11C8.79565 11 9.55871 10.6839 10.1213 10.1213C10.6839 9.55871 11 8.79565 11 8C11 7.20435 10.6839 6.44129 10.1213 5.87868C9.55871 5.31607 8.79565 5 8 5C7.20435 5 6.44129 5.31607 5.87868 5.87868C5.31607 6.44129 5 7.20435 5 8C5 8.79565 5.31607 9.55871 5.87868 10.1213C6.44129 10.6839 7.20435 11 8 11ZM8.3 0C8.687 0 9.1 0.298 9.222 0.666L9.755 2.261C10.1257 2.37433 10.48 2.521 10.818 2.701L12.322 1.95C12.668 1.777 13.172 1.857 13.444 2.13L13.869 2.556C14.143 2.829 14.223 3.331 14.05 3.678L13.298 5.182C13.478 5.51933 13.6253 5.874 13.74 6.246L15.334 6.778C15.701 6.9 16 7.313 16 7.7V8.3C16 8.687 15.702 9.1 15.334 9.222L13.739 9.755C13.6257 10.1257 13.479 10.48 13.299 10.818L14.05 12.322C14.223 12.668 14.142 13.172 13.87 13.444L13.444 13.869C13.171 14.143 12.669 14.223 12.322 14.05L10.818 13.298C10.4807 13.478 10.1263 13.625 9.755 13.739L9.222 15.334C9.1 15.701 8.687 16 8.3 16H7.698C7.312 16 6.9 15.702 6.778 15.334L6.245 13.74C5.87698 13.6271 5.52067 13.4791 5.181 13.298L3.677 14.05C3.331 14.223 2.827 14.142 2.555 13.87L2.13 13.444C1.856 13.171 1.776 12.669 1.949 12.322L2.701 10.818C2.51988 10.4783 2.37186 10.122 2.259 9.754L0.666 9.222C0.299 9.1 0 8.687 0 8.3V7.698C0 7.312 0.298 6.9 0.666 6.778L2.261 6.244C2.37433 5.87333 2.521 5.519 2.701 5.181L1.95 3.678C1.777 3.332 1.857 2.828 2.13 2.556L2.556 2.131C2.829 1.857 3.331 1.777 3.678 1.95L5.182 2.702C5.51933 2.522 5.874 2.37467 6.246 2.26L6.778 0.666C6.9 0.299 7.313 0 7.7 0H8.3Z" fill="var(--fill-0, #575456)"/>
</g>
<defs>
<clipPath id="clip0_0_7">
<rect width="16" height="16" fill="white"/>
</clipPath>
</defs>
</svg>
