<svg preserveAspectRatio="none" width="100%" height="100%" overflow="visible" style="display: block;" viewBox="0 0 16 16" fill="none" xmlns="http://www.w3.org/2000/svg">
<g id="Icon" clip-path="url(#clip0_0_29)">
<path id="Vector" fill-rule="evenodd" clip-rule="evenodd" d="M7 8C7 7.73478 7.10536 7.48043 7.29289 7.29289C7.48043 7.10536 7.73478 7 8 7H16C16.2652 7 16.5196 7.10536 16.7071 7.29289C16.8946 7.48043 17 7.73478 17 8C17 8.26522 16.8946 8.51957 16.7071 8.70711C16.5196 8.89464 16.2652 9 16 9H8C7.73478 9 7.48043 8.89464 7.29289 8.70711C7.10536 8.51957 7 8.26522 7 8ZM8 12C7.73478 12 7.48043 12.1054 7.29289 12.2929C7.10536 12.4804 7 12.7348 7 13C7 13.2652 7.10536 13.5196 7.29289 13.7071C7.48043 13.8946 7.73478 14 8 14H16C16.2652 14 16.5196 13.8946 16.7071 13.7071C16.8946 13.5196 17 13.2652 17 13C17 12.7348 16.8946 12.4804 16.7071 12.2929C16.5196 12.1054 16.2652 12 16 12H8ZM8 2C7.73478 2 7.48043 2.10536 7.29289 2.29289C7.10536 2.48043 7 2.73478 7 3C7 3.26522 7.10536 3.51957 7.29289 3.70711C7.48043 3.89464 7.73478 4 8 4H16C16.2652 4 16.5196 3.89464 16.7071 3.70711C16.8946 3.51957 17 3.26522 17 3C17 2.73478 16.8946 2.48043 16.7071 2.29289C16.5196 2.10536 16.2652 2 16 2H8Z" fill="var(--fill-0, #575456)"/>
<path id="Vector_2" fill-rule="evenodd" clip-rule="evenodd" d="M3.23 8.949C3.14816 9.07243 3.03992 9.17614 2.91311 9.25263C2.78629 9.32913 2.64407 9.37651 2.49672 9.39134C2.34937 9.40617 2.20056 9.38808 2.06105 9.33839C1.92153 9.2887 1.7948 9.20864 1.69 9.104L0.706 8.12C0.61049 8.02775 0.534308 7.91741 0.481899 7.7954C0.42949 7.6734 0.401903 7.54218 0.40075 7.4094C0.399596 7.27662 0.424897 7.14494 0.475178 7.02205C0.525459 6.89915 0.599712 6.7875 0.693605 6.69361C0.787498 6.59971 0.89915 6.52546 1.02205 6.47518C1.14494 6.4249 1.27662 6.3996 1.4094 6.40075C1.54218 6.4019 1.6734 6.42949 1.7954 6.4819C1.91741 6.53431 2.02775 6.61049 2.12 6.706L2.381 6.967L3.793 5.556C3.88584 5.46309 3.99608 5.38938 4.11741 5.33907C4.23874 5.28876 4.3688 5.26284 4.50015 5.2628C4.63149 5.26275 4.76157 5.28858 4.88293 5.3388C5.0043 5.38902 5.11459 5.46266 5.2075 5.5555C5.30041 5.64834 5.37412 5.75858 5.42443 5.87991C5.47474 6.00124 5.50066 6.1313 5.5007 6.26265C5.50075 6.394 5.47492 6.52407 5.4247 6.64543C5.37448 6.7668 5.30084 6.87709 5.208 6.97L3.23 8.949Z" fill="var(--fill-0, #575456)"/>
<path id="Vector_3" d="M3 12H2C1.44772 12 1 12.4477 1 13C1 13.5523 1.44772 14 2 14H3C3.55228 14 4 13.5523 4 13C4 12.4477 3.55228 12 3 12Z" fill="var(--fill-0, #575456)"/>
<path id="Vector_4" d="M3 2H2C1.44772 2 1 2.44772 1 3C1 3.55228 1.44772 4 2 4H3C3.55228 4 4 3.55228 4 3C4 2.44772 3.55228 2 3 2Z" fill="var(--fill-0, #575456)"/>
</g>
<defs>
<clipPath id="clip0_0_29">
<rect width="16" height="16" fill="white"/>
</clipPath>
</defs>
</svg>
