<svg preserveAspectRatio="none" width="100%" height="100%" overflow="visible" style="display: block;" viewBox="0 0 15.8906 10.6275" fill="none" xmlns="http://www.w3.org/2000/svg">
<g id="Group">
<path id="Vector" d="M7.85411 7.60978C10.2341 5.57228 9.53921 1.71567 6.58501 0.643267C3.61845 -0.433623 0.59856 2.10473 1.14924 5.21228C1.3147 6.14608 1.79866 6.99318 2.51806 7.60978C1.53008 8.06388 0.67371 8.76208 0.0298504 9.63878L0.025 9.64538V9.65358H0.0500001C0.0250001 9.65358 0.02769 9.66488 0.0352 9.67368L0.0376104 9.67548L0.0544604 9.68788L0.1892 9.78678L1.26718 10.5778L1.28736 10.5926L1.30215 10.5724C3.22534 7.94578 7.14691 7.94578 9.07001 10.5724L9.08481 10.5926L9.10501 10.5778L10.3376 9.67368L10.3578 9.65888L10.343 9.63878C9.69871 8.76218 8.84221 8.06398 7.85411 7.60978ZM14.5887 10.1836L14.5835 10.2081L14.6478 10.2219L14.6237 10.189L14.7575 10.0911L15.8354 9.30218L15.8556 9.28748L15.8408 9.26728C15.1969 8.39048 14.3406 7.69228 13.3526 7.23828C13.9749 6.70338 14.4226 5.99378 14.6373 5.20118C15.4627 2.15503 12.6809 -0.642263 9.63021 0.166087L9.60601 0.172487L9.61241 0.196667L10.0046 1.67313L10.011 1.69727L10.0352 1.69088C11.134 1.40022 12.2916 1.88065 12.8616 2.86401C13.8353 4.54338 12.6257 6.64698 10.6845 6.65048H10.6596V6.67548V6.67658V6.67758V6.67878V6.67978V6.68088V6.68198V6.68328V6.68438V6.68558V6.68688V6.68828V6.68938V6.69068V6.69188V6.69328V6.69468V6.69618V6.69718V6.69828V6.69938V6.70048V6.70168V6.70288V6.70408V6.70538V6.70668V6.70808V6.70948V6.71088V6.71238V6.71388V6.71548V6.71708V6.71868V6.72038V6.72208V6.72388V6.72568V6.72758V6.72948V6.73048V6.73238V6.73438V6.73548V6.73648V6.73758V6.73858V6.73968V6.74078V6.74188V6.74298V6.74408V6.74528V6.74638V6.74758V6.74878V6.74998V6.75118V6.75238V6.75358V6.75478V6.75608V6.75728V6.75858V6.75988V6.76118V6.76248V6.76388V6.76518V6.76658V6.76798V6.76928V6.77068V6.77218V6.77358V6.77498V6.77648V6.77798V6.77938V6.78088V6.78248V6.78398V6.78548V6.78708V6.78858V6.79018V6.79178V6.79348V6.79508V6.79668V6.79838V6.80008V6.80178V6.80348V6.80518V6.80688V6.80868V6.81038V6.81218V6.81398V6.81578V6.81768V6.81948V6.82138V6.82328V6.82508V6.82708V6.82898V6.83088V6.83288V6.83488V6.83688V6.83888V6.84088V6.84288V6.84498V6.84708V6.84918V6.85128V6.85338V6.85548V6.85768V6.85988V6.86208V6.86428V6.86648V6.86878V6.87098V6.87328V6.87558V6.87788V6.88028V6.88258V6.88498V6.88738V6.88978V6.89218V6.89458V6.89708V6.89958V6.90208V6.90458V6.90708V6.90968V6.91228V6.91488V6.91748V6.92008V6.92278V6.92538V6.92808V6.93078V6.93348V6.93628V6.93898V6.94178V6.94458V6.94748V6.95028V6.95318V6.95598V6.95898V6.96188V6.96478V6.96778V6.97078V6.97378V6.97678V6.97978V6.98288V6.98598V6.98908V6.99218V6.99538V6.99848V7.00168V7.00488V7.00808V7.01138V7.01468V7.01798V7.02128V7.02458V7.02798V7.03128V7.03468V7.03818V7.04158V7.04508V7.04858V7.05208V7.05558V7.05908V7.06268V7.06628V7.06988V7.07358V7.07718V7.08088V7.08458V7.08838V7.09208V7.09588V7.09968V7.10348V7.10738V7.11118V7.11508V7.11898V7.12298V7.12688V7.13088V7.13488V7.13888V7.14298V7.14708V7.15118V7.15528V7.15948V7.16358V7.16778V7.17198V7.17628V7.18058V7.18478V7.18918V7.19348V7.19788V7.20228V7.20668V7.21108V7.21558V7.22008V7.22458V7.22908V7.23368V7.23828V7.24288V7.24748V7.25218V7.25688V7.26158V7.26628V7.27108V7.27588V7.28068V7.28548V7.29038V7.29528V7.30018V7.30518V7.31008V7.31508V7.32008V7.32518V7.33028V7.33538V7.34048V7.34568V7.35078V7.35598V7.36128V7.36648V7.37178V7.37708V7.38248V7.38788V7.39328V7.39868V7.40408V7.40958V7.41508V7.42058V7.42618V7.43178V7.43738V7.44308V7.44868V7.45438V7.46018V7.46588V7.47168V7.47748V7.48328V7.48918V7.49508V7.50098V7.50698V7.51298V7.51898V7.52498V7.53108V7.53718V7.54328V7.54948V7.55558V7.56188V7.56808V7.57438V7.58068V7.58698V7.59338V7.59968V7.60618V7.61258V7.61908V7.62558V7.63208V7.63868V7.64528V7.65188V7.65858V7.66528V7.67198V7.67868V7.68548V7.69228V7.69918V7.70598V7.71288V7.71988V7.72678V7.73378V7.74078V7.74788V7.75498V7.76208V7.76928V7.77638V7.78358V7.79088V7.79818V7.80548V7.81278V7.82018V7.82758V7.83498V7.84248V7.84998V7.85748V7.86508V7.87268V7.88028V7.88788V7.89558V7.90338V7.91108V7.91888V7.92668V7.93458V7.94248V7.95038V7.95828V7.96628V7.97428V7.98238V7.99048V7.99858V8.00668V8.01488V8.02308V8.03138V8.03968V8.04798V8.05628V8.06468V8.07308V8.08158V8.09008V8.09858V8.10718V8.11568V8.12438V8.13298V8.14168V8.15038V8.15918V8.16798V8.17678V8.18568V8.19458V8.20348V8.22848H10.6845C12.2184 8.23168 13.6598 8.96268 14.5685 10.1984L14.5762 10.1928C14.5804 10.197 14.5862 10.1953 14.5887 10.1836ZM2.66438 4.50028C2.66438 2.55906 4.76582 1.34579 6.44701 2.3164C8.12811 3.28701 8.12811 5.71358 6.44701 6.68418C6.06361 6.90548 5.62876 7.02198 5.1861 7.02198C3.79335 7.02208 2.66438 5.89308 2.66438 4.50028Z" fill="var(--fill-0, #575456)" stroke="var(--stroke-0, #575456)" stroke-width="0.05"/>
</g>
</svg>
