<svg preserveAspectRatio="none" width="100%" height="100%" overflow="visible" style="display: block;" viewBox="0 0 16 16" fill="none" xmlns="http://www.w3.org/2000/svg">
<g id="Icon">
<path id="Vector" fill-rule="evenodd" clip-rule="evenodd" d="M0 3C0 2.46957 0.210714 1.96086 0.585786 1.58579C0.960859 1.21071 1.46957 1 2 1H14C14.5304 1 15.0391 1.21071 15.4142 1.58579C15.7893 1.96086 16 2.46957 16 3V5C16 5.53043 15.7893 6.03914 15.4142 6.41421C15.0391 6.78929 14.5304 7 14 7H2C1.46957 7 0.960859 6.78929 0.585786 6.41421C0.210714 6.03914 0 5.53043 0 5V3ZM0 11C0 10.4696 0.210714 9.96086 0.585786 9.58579C0.960859 9.21071 1.46957 9 2 9H8C8.53043 9 9.03914 9.21071 9.41421 9.58579C9.78929 9.96086 10 10.4696 10 11V13C10 13.5304 9.78929 14.0391 9.41421 14.4142C9.03914 14.7893 8.53043 15 8 15H2C1.46957 15 0.960859 14.7893 0.585786 14.4142C0.210714 14.0391 0 13.5304 0 13V11Z" fill="var(--fill-0, #575456)"/>
</g>
</svg>
