<svg preserveAspectRatio="none" width="100%" height="100%" overflow="visible" style="display: block;" viewBox="0 0 16 16" fill="none" xmlns="http://www.w3.org/2000/svg">
<g id="Icon" clip-path="url(#clip0_0_17)">
<path id="Vector" fill-rule="evenodd" clip-rule="evenodd" d="M8.433 1.996C8.513 2.14067 8.582 2.291 8.64 2.447C9.819 1.795 11.122 1.709 12.256 2.162C14.07 2.888 15.199 4.889 14.702 7.474C14.6778 7.60073 14.6267 7.72077 14.552 7.826C14.4776 7.92917 14.3822 8.0154 14.272 8.079C14.1629 8.14019 14.0414 8.17593 13.9165 8.18355C13.7917 8.19117 13.6667 8.17047 13.551 8.123L9.528 6.45C10.069 8.457 10.124 10.5 10.033 12.108C9.96661 13.2382 9.81687 14.3619 9.585 15.47C9.53922 15.6599 9.43286 15.8298 9.282 15.954C9.13405 16.0755 8.94942 16.1435 8.758 16.147H6.629C6.48347 16.1483 6.34033 16.11 6.215 16.036C6.08715 15.9614 5.98045 15.8554 5.905 15.728C5.82818 15.5989 5.78451 15.4528 5.77788 15.3028C5.77125 15.1527 5.80187 15.0033 5.867 14.868C6.254 14.063 6.509 13.169 6.705 12.297C7.029 10.856 7.213 9.023 6.797 7.183L2.185 10.263C2.00394 10.3838 1.78269 10.4286 1.5689 10.3878C1.35511 10.3471 1.16589 10.2239 1.042 10.045C0.956319 9.92513 0.901377 9.78606 0.882 9.64C0.562 7.257 1.492 5.136 3.07 4.02C3.14333 3.96933 3.21733 3.92 3.292 3.872L1.66 3.268C1.5238 3.21705 1.40294 3.132 1.309 3.021C1.16652 2.84924 1.09149 2.63147 1.09793 2.4084C1.10437 2.18533 1.19185 1.97225 1.344 1.809C2.837 0.26 4.874 -0.175 6.473 0.38C7.278 0.66 7.994 1.198 8.433 1.996Z" fill="var(--fill-0, #575456)"/>
</g>
<defs>
<clipPath id="clip0_0_17">
<rect width="16" height="16" fill="white"/>
</clipPath>
</defs>
</svg>
