<svg preserveAspectRatio="none" width="100%" height="100%" overflow="visible" style="display: block;" viewBox="0 0 24 24" fill="none" xmlns="http://www.w3.org/2000/svg">
<g id="Icon">
<path d="M0 12C0 5.37258 5.37258 0 12 0V0C18.6274 0 24 5.37258 24 12V12C24 18.6274 18.6274 24 12 24V24C5.37258 24 0 18.6274 0 12V12Z" fill="var(--fill-0, #EC85FE)"/>
<path id="Vector" d="M5.5 12.3027C5.5 15.6957 8.60838 18.5 12 18.5C15.393 18.5 18.5007 15.695 18.5 12.302C18.5 9.47108 16.5 7 14 6.5V8.25C15.6532 8.89874 16.75 10.4191 16.75 12.3027C16.75 14.7594 14.5 16.75 12 16.75C9.5 16.75 7.25 14.7594 7.25 12.3027C7.25 10.4198 8.34478 8.89874 10 8.25V6.5C7.5 7 5.5 9.47108 5.5 12.3027Z" fill="var(--fill-0, #312537)"/>
<path id="Vector_2" d="M13 13V4H11V13H13Z" fill="var(--fill-0, #312537)"/>
</g>
</svg>
