<svg width="24" height="24" viewBox="0 0 24 24" fill="none" xmlns="http://www.w3.org/2000/svg">
  <circle cx="12" cy="12" r="12" fill="#FFFFFF" />
  <g transform="translate(4.04, 6.41)">
    <path
      d="M7.85411 7.60978C10.2341 5.57228 9.53921 1.71567 6.58501 0.643267C3.61845 -0.433623 0.59856 2.10473 1.14924 5.21228C1.3147 6.14608 1.79866 6.99318 2.51806 7.60978C1.53008 8.06388 0.67371 8.76208 0.0298504 9.63878L0.025 9.64538V9.65358H0.0500001C0.0250001 9.65358 0.02769 9.66488 0.0352 9.67368L0.0376104 9.67548L0.0544604 9.68788L0.1892 9.78678L1.26718 10.5778L1.28736 10.5926L1.30215 10.5724C3.22534 7.94578 7.14691 7.94578 9.07001 10.5724L9.08481 10.5926L9.10501 10.5778L10.3376 9.67368L10.3578 9.65888L10.343 9.63878C9.69871 8.76218 8.84221 8.06398 7.85411 7.60978ZM14.5887 10.1836L14.5835 10.2081L14.6478 10.2219L14.6237 10.189L14.7575 10.0911L15.8354 9.30218L15.8556 9.28748L15.8408 9.26728C15.1969 8.39048 14.3406 7.69228 13.3526 7.23828C13.9749 6.70338 14.4226 5.99378 14.6373 5.20118C15.4627 2.15503 12.6809 -0.642263 9.63021 0.166087L9.60601 0.172487L9.61241 0.196667L10.0046 1.67313L10.011 1.69727L10.0352 1.69088C11.134 1.40022 12.2916 1.88065 12.8616 2.86401C13.8353 4.54338 12.6257 6.64698 10.6845 6.65048H10.6596V6.67548H10.6845C12.2184 6.65368 13.6598 7.38468 14.5685 8.62048C14.5862 8.61738 14.5887 8.60568V10.1836ZM2.66438 4.50028C2.66438 2.55906 4.76582 1.34579 6.44701 2.3164C8.12811 3.28701 8.12811 5.71358 6.44701 6.68418C6.06361 6.90548 5.62876 7.02198 5.1861 7.02198C3.79335 7.02208 2.66438 5.89308 2.66438 4.50028Z"
      fill="#575456"
    />
  </g>
</svg>
